<svg width="32" height="32" viewBox="0 0 32 32" fill="none" xmlns="http://www.w3.org/2000/svg">
<g clip-path="url(#clip0)">
<path d="M10.5047 5.00701C10.9377 4.56301 11.6584 4.56301 12.1066 5.00701C12.5397 5.43601 12.5397 6.15001 12.1066 6.57801L3.98371 14.625H30.7882C31.4131 14.626 31.9097 15.118 31.9097 15.737C31.9097 16.356 31.4131 16.864 30.7882 16.864H3.98371L12.1066 24.896C12.5397 25.34 12.5397 26.055 12.1066 26.483C11.6584 26.927 10.9367 26.927 10.5047 26.483L0.458764 16.531C0.0105755 16.102 0.0105755 15.388 0.458764 14.96L10.5047 5.00701Z" fill="white"/>
</g>
<defs>
<clipPath id="clip0">
<rect width="31.7871" height="31.49" fill="white" transform="matrix(-1 0 0 1 31.9097 0)"/>
</clipPath>
</defs>
</svg>
