<svg width="12" height="11" viewBox="0 0 12 11" fill="none" xmlns="http://www.w3.org/2000/svg">
<path d="M11.1342 3.57287L8.06175 3.12912L6.6885 0.370792C6.44245 -0.120874 5.72954 -0.127124 5.48139 0.370792L4.10814 3.12912L1.03567 3.57287C0.484688 3.65204 0.263874 4.32495 0.663442 4.71037L2.8863 6.8562L2.36055 9.88744C2.26592 10.4354 2.84845 10.8458 3.33634 10.5895L6.08494 9.15828L8.83355 10.5895C9.32144 10.8437 9.90397 10.4354 9.80933 9.88744L9.28359 6.8562L11.5064 4.71037C11.906 4.32495 11.6852 3.65204 11.1342 3.57287V3.57287ZM8.20055 6.5062L8.69896 9.38953L6.08494 8.02911L3.47093 9.38953L3.96934 6.5062L1.85373 4.46454L4.77689 4.0437L6.08494 1.41871L7.393 4.0437L10.3162 4.46454L8.20055 6.5062V6.5062Z" fill="white"/>
</svg>
